<?xml version="1.0" encoding="UTF-8" standalone="no"?>
<!-- Created with Inkscape (http://www.inkscape.org/) -->

<svg
   width="500"
   height="500"
   viewBox="0 0 132.29166 132.29167"
   version="1.1"
   id="svg1"
   xml:space="preserve"
   xmlns="http://www.w3.org/2000/svg"
   xmlns:svg="http://www.w3.org/2000/svg"><defs
     id="defs1" /><g
     id="layer1"><g
       id="g48"
       style="stroke:#000000;stroke-opacity:1"
       transform="translate(-0.1276405,-0.26458333)"><path
         id="rect36"
         style="opacity:1;fill:#ff00ff;stroke:#000000;stroke-width:1.84485;stroke-linejoin:round;stroke-opacity:1"
         d="m 40.703458,52.348742 c -2.150422,0 -3.881417,1.730995 -3.881417,3.881417 v 33.812406 c 0,1.868771 1.30753,3.4211 3.061312,3.795634 l -2.270145,-0.0026 -3.648357,17.273881 h 64.617244 l -3.892269,-17.211869 -2.615344,-0.0026 c 1.922545,-0.234838 3.402376,-1.864473 3.402376,-3.852478 V 56.230159 c 0,-2.150422 -1.730994,-3.881417 -3.881416,-3.881417 z m 3.708818,5.206401 h 43.637646 c 1.343905,0 2.425691,1.081786 2.425691,2.425691 v 27.290841 c 0,1.343905 -1.081786,2.425691 -2.425691,2.425691 H 44.412276 c -1.343906,0 -2.425692,-1.081786 -2.425692,-2.425691 V 59.980834 c 0,-1.343905 1.081786,-2.425691 2.425692,-2.425691 z M 33.947798,111.12707 v 5.38623 h 64.65135 v -5.38623 z" /><path
         id="rect1"
         style="fill:#ffffff;stroke-width:1.85208"
         d="M 44.412512,57.555252 H 88.04997 c 1.343905,0 2.425822,1.081917 2.425822,2.425822 v 27.290469 c 0,1.343905 -1.081917,2.425822 -2.425822,2.425822 H 44.412512 c -1.343905,0 -2.425821,-1.081917 -2.425821,-2.425822 V 59.981074 c 0,-1.343905 1.081916,-2.425822 2.425821,-2.425822 z" /><path
         id="path20"
         style="display:inline;fill:#ffffff;stroke:#000000;stroke-width:0.319458;stroke-opacity:1"
         d="m 59.763888,106.23316 h 13.06608 c 0.07779,0 0.124751,0.11092 0.140416,0.24251 l 0.06572,0.55208 0.06572,0.55208 0.06572,0.55208 0.06572,0.55208 c 0.01566,0.1316 -0.06262,0.24224 -0.140415,0.2425 l -13.63816,0.0484 c -0.07779,2.8e-4 -0.158329,-0.11177 -0.140415,-0.24252 l 0.0773,-0.56416 0.0773,-0.56416 0.0773,-0.56417 0.0773,-0.56417 c 0.01792,-0.13073 0.06263,-0.24251 0.140416,-0.24251 z" /><g
         id="g46"
         style="stroke:#000000;stroke-opacity:1"><path
           id="path44"
           style="display:inline;fill:#ffffff;stroke:#000000;stroke-width:0.977738;stroke-opacity:1"
           d="m 43.154011,96.970273 h 46.321124 c 0.275778,0 0.442258,0.293065 0.497794,0.640787 l 0.23298,1.458763 0.232979,1.458767 0.23298,1.45876 0.23298,1.45876 c 0.05554,0.34773 -0.222015,0.64006 -0.497792,0.64078 l -48.349227,0.12775 c -0.275777,7.2e-4 -0.5613,-0.29534 -0.497793,-0.64079 l 0.274046,-1.4907 0.274045,-1.49069 0.274046,-1.490702 0.274046,-1.490698 c 0.06351,-0.345454 0.222014,-0.640787 0.497792,-0.640787 z" /><path
           style="display:inline;fill:none;stroke:#000000;stroke-width:0.264583px;stroke-linecap:butt;stroke-linejoin:miter;stroke-opacity:1"
           d="m 41.69706,102.8285 49.091299,-0.11177"
           id="path19" /><path
           style="display:inline;fill:none;stroke:#000000;stroke-width:0.264583px;stroke-linecap:butt;stroke-linejoin:miter;stroke-opacity:1"
           d="m 42.108127,100.59246 48.33076,-0.0639"
           id="path18" /><path
           style="display:inline;fill:none;stroke:#000000;stroke-width:0.264583px;stroke-linecap:butt;stroke-linejoin:miter;stroke-opacity:1"
           d="M 42.519197,98.356408 90.08942,98.340427"
           id="path17" /></g></g><g
       id="g47"
       style="stroke:#000000;stroke-opacity:1"
       transform="translate(-0.1276405,-0.26458333)"><path
         style="fill:none;stroke:#000000;stroke-width:1.85208;stroke-linecap:round;stroke-linejoin:round;stroke-dasharray:none;stroke-opacity:1"
         d="m 86.380078,69.054561 -3.712612,3.960117 v 0"
         id="path7" /><path
         style="fill:none;stroke:#000000;stroke-width:1.85208;stroke-linecap:round;stroke-linejoin:round;stroke-dasharray:none;stroke-opacity:1"
         d="m 85.698623,62.237498 -9.527415,10.045269 v 0"
         id="path6" /><path
         style="fill:none;stroke:#000000;stroke-width:1.85208;stroke-linecap:round;stroke-linejoin:round;stroke-dasharray:none;stroke-opacity:1"
         d="m 78.954856,61.381832 -3.712612,3.960117 v 0"
         id="path5" /></g><g
       id="g20"
       style="stroke:#000000;stroke-opacity:1"
       transform="translate(-0.1276405,-0.26458333)"><path
         style="fill:#bdb2ff;fill-opacity:1;fill-rule:nonzero;stroke:#bdb2ff;stroke-width:1.85208;stroke-linecap:round;stroke-linejoin:round;stroke-dasharray:none;stroke-opacity:1"
         d="m 119.59372,65.156224 c -0.21392,0.01722 -0.74099,0.0181 -1.28352,0.103319 -0.95889,0.150625 -2.75496,0.487941 -3.98462,0.929729 a 1.4767489e-4,0.01316102 68.573602 0 0 -0.0161,0.0065 c -0.037,0.01432 -0.0736,0.02867 -0.10973,0.04304 -1.41601,0.562419 -2.84995,1.33798 -3.88912,1.998844 -0.77115,0.490413 -1.57378,1.218574 -1.88854,1.462289 0.39476,-0.05131 1.47705,-0.106922 2.36856,-0.307863 1.20138,-0.270782 2.76246,-0.740586 4.15976,-1.347977 0.0357,-0.01552 0.0717,-0.03134 0.10789,-0.04745 l -0.0161,0.0065 c 1.19953,-0.518052 2.74108,-1.499531 3.54394,-2.045021 0.45425,-0.308636 0.83957,-0.668271 1.00748,-0.801925 z"
         id="path14" /><path
         style="fill:#a0c4ff;fill-opacity:1;fill-rule:nonzero;stroke:#a0c4ff;stroke-width:1.85208;stroke-linecap:round;stroke-linejoin:round;stroke-dasharray:none;stroke-opacity:1"
         d="m 123.12077,32.874352 c -0.92462,0.711707 -3.6476,2.604024 -5.54774,4.27024 -2.25395,1.976461 -4.69675,4.418183 -6.97667,6.954301 -2.47064,2.748264 -5.21536,6.302367 -7.25115,9.012845 -1.59833,2.128046 -3.408292,4.867357 -4.089951,5.840828 0.909371,-0.765076 3.477891,-2.810195 5.456251,-4.590458 2.51983,-2.267507 5.81728,-5.31578 8.33628,-8.019778 2.32456,-2.495269 4.54069,-5.144435 6.31008,-7.564336 1.49165,-2.040048 3.13575,-4.919702 3.7629,-5.903642 z"
         id="path13" /><path
         style="fill:#9bf6ff;fill-opacity:1;fill-rule:nonzero;stroke:#9bf6ff;stroke-width:1.85208;stroke-linecap:round;stroke-linejoin:round;stroke-dasharray:none;stroke-opacity:1"
         d="m 89.772272,34.454851 c -0.183665,0.198575 -0.685952,0.655711 -1.10199,1.191447 -0.711795,0.916586 -1.828015,2.579964 -2.56311,3.966751 a 0.06171405,0.37060807 35.652368 0 0 -0.02383,0.04844 c -0.79723,1.782219 -1.608418,4.143487 -2.020824,5.516602 -0.239453,0.797265 -0.378488,1.600621 -0.454186,1.920745 0.18974,-0.268716 0.699621,-0.904902 1.13844,-1.612297 0.751959,-1.212194 1.975466,-3.367994 2.7831,-5.140556 0.741299,-1.379158 1.498622,-3.217737 1.863628,-4.31301 0.214455,-0.643514 0.315645,-1.315099 0.378774,-1.578119 z"
         id="path12" /><path
         style="fill:#caffbf;fill-opacity:1;fill-rule:nonzero;stroke:#caffbf;stroke-width:1.85208;stroke-linecap:round;stroke-linejoin:round;stroke-dasharray:none;stroke-opacity:1"
         d="m 65.116505,13.90838 c -0.170128,1.05663 -0.816351,4.003718 -1.020767,6.339781 -0.249045,2.846089 -0.09483,6.353601 -0.142244,9.530402 -0.04742,3.176801 -0.30624,6.678148 -0.142245,9.530402 0.134607,2.341124 0.692589,5.306184 0.831107,6.367421 0.170128,-1.05663 0.816351,-4.003718 1.020767,-6.339781 0.249045,-2.846089 0.09483,-6.353601 0.142244,-9.530402 0.04742,-3.176801 0.30624,-6.678148 0.142245,-9.530402 -0.134607,-2.341124 -0.692589,-5.306184 -0.831107,-6.367421 z"
         id="path11" /><path
         style="fill:#fdffb6;fill-opacity:1;fill-rule:nonzero;stroke:#fdffb6;stroke-width:1.85208;stroke-linecap:round;stroke-linejoin:round;stroke-dasharray:none;stroke-opacity:1"
         d="m 42.357338,33.348501 0,0 c -0.03795,0.01802 0.0035,0.281682 0.41174,1.305956 0.121594,0.305043 0.254358,0.639556 0.425695,1.063261 0.248379,0.614222 0.538931,1.318826 0.834108,2.005607 0.291335,0.677839 0.573122,1.305532 0.801827,1.762338 0.03078,0.06148 0.06254,0.123824 0.09514,0.186704 0.224218,0.432423 0.512681,0.931631 0.817006,1.436464 0.363976,0.603786 0.736378,1.192406 1.063938,1.710578 0.182653,0.288943 0.350965,0.555428 0.489551,0.781549 0.561647,0.916408 0.718981,1.143801 0.750784,1.127129 0.03245,-0.01701 -0.06675,-0.274853 -0.496568,-1.259698 -0.106081,-0.243066 -0.227883,-0.53344 -0.359447,-0.848814 -0.23748,-0.569262 -0.500563,-1.204572 -0.782019,-1.854029 -0.233607,-0.539048 -0.47009,-1.064789 -0.684081,-1.497816 -0.03116,-0.06306 -0.06229,-0.125178 -0.09315,-0.185961 -0.224177,-0.441578 -0.556803,-1.060143 -0.905714,-1.697995 -0.359821,-0.657798 -0.725707,-1.315539 -1.051795,-1.896456 -0.138171,-0.246149 -0.423568,-0.750972 -0.561739,-0.99712 -0.540651,-0.960364 -0.716439,-1.160139 -0.75528,-1.141697 z"
         id="path10" /><path
         style="fill:#ffd6af;fill-opacity:1;fill-rule:nonzero;stroke:#ffd6af;stroke-width:1.85208;stroke-linecap:round;stroke-linejoin:round;stroke-dasharray:none;stroke-opacity:1"
         d="m 12.011783,41.72514 c 0.566518,0.593678 2.114288,2.369465 3.399107,3.562067 1.478487,1.372371 3.198301,2.786507 5.038432,4.137956 2.04227,1.499906 4.676565,3.245106 6.720472,4.396732 1.600372,0.90172 3.700135,1.773103 4.440162,2.127724 -0.566518,-0.593678 -2.04578,-2.319974 -3.399107,-3.562067 -1.728393,-1.586333 -4.204113,-3.550016 -6.263128,-5.026849 -1.85522,-1.33066 -3.73275,-2.527499 -5.495776,-3.507839 C 14.91986,43.00094 12.75181,42.079761 12.011783,41.72514 Z"
         id="path9"
         transform="translate(0,0.75055845)" /><path
         style="fill:#ffadad;fill-opacity:1;fill-rule:nonzero;stroke:#ffadad;stroke-width:1.85208;stroke-linecap:round;stroke-linejoin:round;stroke-dasharray:none;stroke-opacity:1"
         d="m 13.110762,63.824882 c 0.283901,0.234938 1.054604,0.994663 1.703407,1.409627 0.721187,0.461259 1.621523,0.850469 2.463808,1.180233 0.835571,0.327135 1.741629,0.59521 2.568758,0.793496 0.749967,0.179788 1.815061,0.313381 2.178073,0.376057 -0.298261,-0.216209 -1.13735,-0.885687 -1.789566,-1.297256 -0.71932,-0.453915 -1.543709,-0.915639 -2.361192,-1.285663 -0.824052,-0.372998 -1.731192,-0.746073 -2.564884,-0.940569 -0.750015,-0.174975 -1.832003,-0.196604 -2.198404,-0.235925 z"
         id="path8" /></g></g></svg>
